<svg xmlns="http://www.w3.org/2000/svg" width="48" height="48" id="bill"><g transform="translate(0 -1004.362)"><circle cx="24" cy="1028.362" r="24" fill="#ef4c45" fill-rule="evenodd"></circle><path style="line-height:125%;-inkscape-font-specification:Sans;text-indent:0;text-align:start;text-decoration-line:none;text-transform:none;block-progression:tb;marker:none" fill="#df2209" d="M24.33 47.988a24 24 0 0 0 1.367-.049 24 24 0 0 0 2.383-.289 24 24 0 0 0 2.34-.525 24 24 0 0 0 2.277-.756 24 24 0 0 0 2.19-.98 24 24 0 0 0 2.08-1.194 24 24 0 0 0 1.951-1.394 24 24 0 0 0 1.803-1.584 24 24 0 0 0 1.634-1.756 24 24 0 0 0 1.454-1.91 24 24 0 0 0 1.254-2.045 24 24 0 0 0 1.042-2.16 24 24 0 0 0 .823-2.254 24 24 0 0 0 .593-2.324 24 24 0 0 0 .194-1.282L31.12 10.893l-.014-.014c-.071-.072-.154-.13-.232-.193-.068-.056-.13-.119-.203-.168l-.006-.004A2.992 2.992 0 0 0 29 10.002H16c-1.653 0-3 1.347-3 3v16H9.5a.5.5 0 0 0-.5.5v1.5c0 .276.029.544.082.805v.002c.16.78.547 1.478 1.09 2.021L24.33 47.988z" color="#000" font-family="sans-serif" font-weight="400" letter-spacing="0" transform="translate(0 1004.362)" word-spacing="0"></path><path style="line-height:125%;-inkscape-font-specification:Sans;text-indent:0;text-align:start;text-decoration-line:none;text-transform:none;block-progression:tb;marker:none" fill="#fff" d="M16 1014.364c-1.653 0-3 1.347-3 3v16H9.5a.5.5 0 0 0-.5.5v1.5c0 2.208 1.793 4 4 4h10v2.5a.5.5 0 0 0 .5.5h14a.5.5 0 0 0 .5-.5v-18a.5.5 0 0 0-.5-.5H32v-5.968c0-1.667-1.343-3.032-3-3.032H16zm0 1h10.781a3.001 3.001 0 0 0-.781 2.032v5.968h-2.5a.5.5 0 0 0-.5.5v9.47l-9 .03v-16c0-1.116.883-2 2-2zm12.813 0c.062-.01.123 0 .187 0 1.113 0 2 .896 2 2.032v5.968h-4v-5.968c0-1.07.79-1.937 1.813-2.032zm-13.813 2v1h1v-1zm2 0v1h8v-1zm-2 2v1h1v-1zm2 0v1h8v-1zm-2 2v1h1v-1zm2 0v1h8v-1zm-2 2v1h1v-1zm2 0v1h5v-1zm7 1h13v17H24v-2.406a.492.492 0 0 0 0-.094v-5.031a.492.492 0 0 0 0-.094v-9.375zm-9 1v1h1v-1zm2 0v1h5v-1zm1 2v1h4v-1zm0 2v1h4v-1zm7.406 0a.5.5 0 0 0-.406.5v2a.5.5 0 0 0 .5.5h2a.5.5 0 0 0 .5-.5v-2a.5.5 0 0 0-.5-.5h-2.094zm4 0a.5.5 0 0 0-.406.5v2a.5.5 0 0 0 .5.5h2a.5.5 0 0 0 .5-.5v-2a.5.5 0 0 0-.5-.5h-2.094zm4 0a.5.5 0 0 0-.406.5v2a.5.5 0 0 0 .5.5h2a.5.5 0 0 0 .5-.5v-2a.5.5 0 0 0-.5-.5h-2.094zm-7.406 1h1v1h-1zm4 0h1v1h-1zm4 0h1v1h-1zm-8.594 3a.5.5 0 0 0-.406.5v2a.5.5 0 0 0 .5.5h2a.5.5 0 0 0 .5-.5v-2a.5.5 0 0 0-.5-.5h-2.094zm4 0a.5.5 0 0 0-.406.5v2a.5.5 0 0 0 .5.5h2a.5.5 0 0 0 .5-.5v-2a.5.5 0 0 0-.5-.5h-2.094zm4 0a.5.5 0 0 0-.406.5v6a.5.5 0 0 0 .5.5h2a.5.5 0 0 0 .5-.5v-6a.5.5 0 0 0-.5-.5h-2.094zm-10.406.97v4.03H13c-1.67 0-3-1.329-3-3v-1l13-.03zm3 .03h1v1h-1zm4 0h1v1h-1zm4 0h1v5h-1zm-8.594 3a.5.5 0 0 0-.406.5v2a.5.5 0 0 0 .5.5h2a.5.5 0 0 0 .5-.5v-2a.5.5 0 0 0-.5-.5h-2.094zm4 0a.5.5 0 0 0-.406.5v2a.5.5 0 0 0 .5.5h2a.5.5 0 0 0 .5-.5v-2a.5.5 0 0 0-.5-.5h-2.094zm-3.406 1h1v1h-1zm4 0h1v1h-1z" color="#000" font-family="sans-serif" font-weight="400" letter-spacing="0" overflow="visible" word-spacing="0"></path><path style="line-height:normal;text-indent:0;text-align:start;text-decoration-line:none;text-decoration-style:solid;text-decoration-color:#000;text-transform:none;block-progression:tb;isolation:auto;mix-blend-mode:normal" fill="#fff" fill-rule="evenodd" d="M25.496 1025.363a.496.496 0 0 0-.496.496v2.008a.496.496 0 0 0 .496.496h10.008a.496.496 0 0 0 .496-.496v-2.008a.496.496 0 0 0-.496-.496H25.496zm.496.992h9.016v1.016h-9.016v-1.016z" color="#000" font-family="sans-serif" font-weight="400" overflow="visible"></path></g></svg>